<svg width="60" height="24" fill="none" xmlns="http://www.w3.org/2000/svg"><path fill-rule="evenodd" clip-rule="evenodd" d="M35.814 17.584h12.77c.05 0 .1 0 .149-.05h.05c.05 0 .05-.05.05-.05s0-.05.049-.05l.05-.049v-.1l1.49-7.254v-.199s0-.05-.05-.05c0 0 0-.05-.049-.05l-.05-.049-.05-.05s-.05 0-.05-.05H34.571l-.496-2.285v-.05c0-.05 0-.05-.05-.05 0 0 0-.049-.05-.049l-.05-.05-.05-.05s-.049 0-.049-.049h-3.428a.392.392 0 00-.397.398c0 .248.15.397.398.397h2.98l1.939 9.143a1.925 1.925 0 00-1.49 1.888 1.94 1.94 0 001.937 1.938h.944c-.149.199-.199.447-.199.745 0 .845.646 1.491 1.491 1.491.845 0 1.49-.646 1.49-1.49 0-.25-.099-.547-.198-.746h5.714c-.149.199-.199.447-.199.745 0 .845.646 1.491 1.491 1.491.845 0 1.49-.646 1.49-1.49 0-.25-.099-.547-.198-.746h.944c.199 0 .398-.15.398-.398 0-.248-.15-.397-.398-.397h-12.72a1.21 1.21 0 01-1.193-1.193 1.21 1.21 0 011.193-1.192zm8.993-7.255h4.82l-1.341 6.51H36.112l-1.392-6.51h10.087zm-6.012 11.13a.764.764 0 01-.745.746.764.764 0 01-.746-.745c0-.398.348-.746.746-.746.397 0 .745.348.745.746zm8.298 0a.764.764 0 01-.745.746.764.764 0 01-.745-.745c0-.398.347-.746.745-.746.397 0 .745.348.745.746z" fill="url(#paint0_radial)"/><path d="M6.36 17.69h.945c-.11-.89-.455-1.555-1.035-1.995-.57-.44-1.27-.66-2.1-.66-.59 0-1.115.11-1.575.33-.45.22-.83.515-1.14.885a3.82 3.82 0 00-.705 1.305c-.16.49-.24 1.015-.24 1.575s.08 1.09.24 1.59c.16.49.395.92.705 1.29.31.37.69.665 1.14.885.46.21.985.315 1.575.315.88 0 1.6-.26 2.16-.78.56-.53.905-1.265 1.035-2.205H6.42a2.577 2.577 0 01-.735 1.59c-.2.19-.43.34-.69.45-.26.11-.535.165-.825.165-.45 0-.845-.095-1.185-.285a2.68 2.68 0 01-.855-.75c-.22-.31-.39-.66-.51-1.05-.11-.4-.165-.805-.165-1.215 0-.41.055-.81.165-1.2.12-.4.29-.755.51-1.065.23-.31.515-.56.855-.75.34-.19.735-.285 1.185-.285.63 0 1.12.165 1.47.495.35.33.59.785.72 1.365zm2.228-.06h.945c.02-.63.22-1.085.6-1.365.38-.29.87-.435 1.47-.435.28 0 .54.025.78.075.25.04.465.12.645.24.19.12.335.285.435.495.11.2.165.46.165.78 0 .21-.03.38-.09.51a.729.729 0 01-.225.315c-.1.07-.225.12-.375.15s-.325.055-.525.075c-.51.06-1.015.125-1.515.195-.49.06-.935.17-1.335.33-.39.16-.705.395-.945.705-.24.3-.36.72-.36 1.26 0 .39.065.73.195 1.02.14.28.325.515.555.705.24.18.515.31.825.39.32.09.66.135 1.02.135.38 0 .705-.035.975-.105.28-.07.525-.17.735-.3.22-.13.415-.29.585-.48.18-.2.355-.425.525-.675h.03c0 .2.01.385.03.555.03.16.085.3.165.42s.19.215.33.285c.15.06.345.09.585.09.13 0 .235-.005.315-.015.09-.01.19-.025.3-.045v-.795a.73.73 0 01-.3.06c-.37 0-.555-.19-.555-.57v-4.11c0-.52-.085-.94-.255-1.26a1.99 1.99 0 00-.66-.765c-.27-.18-.575-.3-.915-.36-.34-.07-.68-.105-1.02-.105-.45 0-.86.05-1.23.15-.37.1-.695.255-.975.465-.27.21-.485.48-.645.81-.16.33-.255.72-.285 1.17zm5.04 1.14V20c0 .38-.075.72-.225 1.02-.14.3-.335.555-.585.765-.24.21-.525.37-.855.48-.33.11-.675.165-1.035.165-.22 0-.435-.035-.645-.105-.21-.07-.395-.17-.555-.3-.16-.14-.29-.3-.39-.48a1.489 1.489 0 01-.135-.645c0-.38.11-.67.33-.87.23-.21.52-.37.87-.48.35-.11.735-.19 1.155-.24.43-.06.845-.125 1.245-.195.13-.02.28-.055.45-.105.17-.05.285-.13.345-.24h.03zm2.829-3.51V23h.945v-4.125c0-.41.07-.785.21-1.125.14-.35.335-.65.585-.9.26-.25.565-.44.915-.57.35-.14.74-.2 1.17-.18v-.945c-.7-.03-1.305.125-1.815.465-.5.34-.87.825-1.11 1.455h-.03V15.26h-.87zm6.231 0v-2.325h-.945v2.325h-1.35v.795h1.35v5.295c-.01.66.11 1.115.36 1.365.25.24.69.36 1.32.36.14 0 .28-.005.42-.015.14-.01.28-.015.42-.015v-.795c-.27.03-.54.045-.81.045-.34-.02-.555-.115-.645-.285-.08-.18-.12-.425-.12-.735v-5.22h1.575v-.795h-1.575z" fill="#C90EA5"/><rect x="44.5" y=".5" width="15" height="15" rx="7.5" fill="#FF1876" stroke="#fff"/><path d="M51.551 7.81c.168.006.337-.006.505-.036.168-.03.318-.081.45-.153a.88.88 0 00.315-.315.887.887 0 00.126-.486.816.816 0 00-.28-.648c-.18-.162-.413-.243-.702-.243a.963.963 0 00-.468.108.985.985 0 00-.333.297c-.084.12-.147.258-.189.414-.041.15-.06.306-.053.468h-1.026c.011-.306.069-.588.17-.846.102-.264.24-.492.414-.684a1.91 1.91 0 01.649-.45c.252-.108.537-.162.855-.162.245 0 .485.036.72.108.24.072.453.177.639.315a1.513 1.513 0 01.63 1.26c0 .318-.072.597-.216.837-.145.234-.37.405-.675.513v.018c.36.072.639.252.837.54.204.282.306.627.306 1.035 0 .3-.06.57-.18.81-.12.234-.282.435-.486.603a2.302 2.302 0 01-.712.378c-.27.09-.555.135-.855.135a2.77 2.77 0 01-.962-.153 1.942 1.942 0 01-.684-.45 1.958 1.958 0 01-.414-.693 2.827 2.827 0 01-.154-.9h1.026c-.012.384.081.705.28.963.203.252.506.378.908.378.343 0 .628-.096.855-.288.234-.198.352-.477.352-.837 0-.246-.048-.441-.145-.585a.9.9 0 00-.378-.324 1.476 1.476 0 00-.53-.144 4.838 4.838 0 00-.595-.018V7.81z" fill="#fff"/><defs><radialGradient id="paint0_radial" cx="0" cy="0" r="1" gradientUnits="userSpaceOnUse" gradientTransform="matrix(-11.76566 -8.66014 4.4795 -6.08584 46.336 19.248)"><stop stop-color="#7E00E8"/><stop offset=".402" stop-color="#FF1876"/><stop offset="1" stop-color="#BB0CB2"/></radialGradient></defs></svg>