<svg width="26" height="26" fill="none" xmlns="http://www.w3.org/2000/svg"><path fill-rule="evenodd" clip-rule="evenodd" d="M21.428.187c.133-.2.466-.266.666-.066.267.2.267.466.134.666l-18.4 24.4c-.067.134-.267.2-.4.2a.51.51 0 01-.334-.133c-.2-.133-.2-.467-.066-.667l18.4-24.4zM.094 13.587l5.134 2.934c.066.066.133.066.266.066.2 0 .334-.066.467-.266.133-.267.067-.534-.2-.667l-4.4-2.533 4.4-2.534c.267-.133.333-.466.2-.666-.133-.267-.467-.334-.667-.2L.161 12.654l-.067.067-.066.066v.4c-.067.267 0 .334.066.4zm25.267-.466v-.2l-.067-.067-.066-.067-5.134-2.933c-.266-.133-.533-.067-.666.2-.134.267-.067.533.2.667l4.4 2.533-4.4 2.533c-.267.134-.334.467-.2.667.066.133.266.267.466.267.067 0 .2 0 .267-.067l5.133-2.933.2-.2v-.134c-.102-.153-.126-.189-.131-.227-.002-.012-.002-.024-.002-.04z" fill="url(#paint0_linear)"/><defs><linearGradient id="paint0_linear" x1="25.494" y1="0" x2="0" y2="0" gradientUnits="userSpaceOnUse"><stop stop-color="#7E00E8"/><stop offset=".542" stop-color="#FF1876"/><stop offset="1" stop-color="#BB0CB2"/></linearGradient></defs></svg>