<svg width="334" height="26" fill="none" xmlns="http://www.w3.org/2000/svg"><path fill-rule="evenodd" clip-rule="evenodd" d="M14.4 14.507v-4.37a.513.513 0 00-.512-.513h-1.19V5.506C12.698 2.47 10.232 0 7.2 0 4.17 0 1.702 2.47 1.702 5.506v4.09h1.026v-4.09A4.48 4.48 0 017.2 1.027a4.48 4.48 0 014.473 4.479v4.118H.513a.513.513 0 00-.513.514v8.455c0 1.004.812 1.817 1.81 1.817h6.302c.26 2.773 2.595 4.951 5.43 4.951A5.437 5.437 0 0019 19.896a5.46 5.46 0 00-1.377-3.629 5.458 5.458 0 00-3.222-1.76zm-13.374 4.09v-7.946h12.35v3.789a5.463 5.463 0 00-5.264 4.943H1.81a.785.785 0 01-.784-.785zm16.928 1.735a4.414 4.414 0 01-4.41 4.002 4.44 4.44 0 01-4.432-4.438 4.44 4.44 0 014.431-4.438 4.435 4.435 0 014.41 4.874z" fill="#6B6B6B"/><path d="M22.94 7.29v.87h3.72V18h1.02V8.16h3.735v-.87H22.94zm9.28 0V18h.945v-4.515c.01-.38.07-.73.18-1.05.12-.33.28-.61.48-.84.21-.24.46-.425.75-.555.3-.14.64-.21 1.02-.21s.695.06.945.18c.26.12.465.285.615.495.15.21.255.46.315.75.06.28.09.585.09.915V18h.945v-4.98c0-.46-.045-.875-.135-1.245a2.15 2.15 0 00-.465-.93c-.22-.26-.515-.46-.885-.6-.36-.14-.81-.21-1.35-.21-.55 0-1.055.145-1.515.435-.46.28-.78.655-.96 1.125h-.03V7.29h-.945zm8.087 0v1.515h.945V7.29h-.945zm0 2.97V18h.945v-7.74h-.945zm7.388 2.265h.945a2.801 2.801 0 00-.255-1.095c-.15-.31-.355-.57-.615-.78a2.418 2.418 0 00-.885-.465c-.33-.1-.69-.15-1.08-.15-.34 0-.685.04-1.035.12-.34.08-.65.205-.93.375s-.51.395-.69.675c-.17.28-.255.615-.255 1.005 0 .33.055.61.165.84.11.22.26.41.45.57.2.15.43.28.69.39.26.1.545.19.855.27l1.215.27c.21.05.415.11.615.18.21.07.395.16.555.27.16.1.285.23.375.39.1.15.15.34.15.57 0 .27-.07.5-.21.69-.13.18-.3.33-.51.45-.21.12-.44.205-.69.255-.24.05-.475.075-.705.075-.63 0-1.16-.16-1.59-.48-.42-.33-.65-.815-.69-1.455h-.945c.08.95.4 1.64.96 2.07.57.43 1.31.645 2.22.645.36 0 .725-.04 1.095-.12.37-.08.7-.21.99-.39.3-.19.545-.43.735-.72.19-.3.285-.66.285-1.08 0-.34-.065-.635-.195-.885s-.3-.46-.51-.63c-.2-.17-.435-.305-.705-.405a3.26 3.26 0 00-.795-.225l-1.26-.285c-.16-.04-.335-.09-.525-.15a2.839 2.839 0 01-.525-.255c-.16-.1-.295-.22-.405-.36a.95.95 0 01-.15-.54c0-.25.055-.46.165-.63.11-.17.255-.305.435-.405.18-.11.375-.185.585-.225.22-.05.435-.075.645-.075.27 0 .525.035.765.105.24.06.45.16.63.3.19.14.34.32.45.54.11.21.17.46.18.75zm6.777-5.235v1.515h.945V7.29h-.945zm0 2.97V18h.945v-7.74h-.945zm7.388 2.265h.945a2.801 2.801 0 00-.255-1.095c-.15-.31-.355-.57-.615-.78a2.418 2.418 0 00-.885-.465c-.33-.1-.69-.15-1.08-.15-.34 0-.685.04-1.035.12-.34.08-.65.205-.93.375s-.51.395-.69.675c-.17.28-.255.615-.255 1.005 0 .33.055.61.165.84.11.22.26.41.45.57.2.15.43.28.69.39.26.1.545.19.855.27l1.215.27c.21.05.415.11.615.18.21.07.395.16.555.27.16.1.285.23.375.39.1.15.15.34.15.57 0 .27-.07.5-.21.69-.13.18-.3.33-.51.45-.21.12-.44.205-.69.255-.24.05-.475.075-.705.075-.63 0-1.16-.16-1.59-.48-.42-.33-.65-.815-.69-1.455h-.945c.08.95.4 1.64.96 2.07.57.43 1.31.645 2.22.645.36 0 .725-.04 1.095-.12.37-.08.7-.21.99-.39.3-.19.545-.43.735-.72.19-.3.285-.66.285-1.08 0-.34-.065-.635-.195-.885s-.3-.46-.51-.63c-.2-.17-.435-.305-.705-.405a3.26 3.26 0 00-.795-.225l-1.26-.285c-.16-.04-.335-.09-.525-.15a2.839 2.839 0 01-.525-.255c-.16-.1-.295-.22-.405-.36a.95.95 0 01-.15-.54c0-.25.055-.46.165-.63.11-.17.255-.305.435-.405.18-.11.375-.185.585-.225.22-.05.435-.075.645-.075.27 0 .525.035.765.105.24.06.45.16.63.3.19.14.34.32.45.54.11.21.17.46.18.75zm6.672.105h.945c.02-.63.22-1.085.6-1.365.38-.29.87-.435 1.47-.435.28 0 .54.025.78.075.25.04.465.12.645.24.19.12.335.285.435.495.11.2.165.46.165.78 0 .21-.03.38-.09.51a.729.729 0 01-.225.315c-.1.07-.225.12-.375.15s-.325.055-.525.075c-.51.06-1.015.125-1.515.195-.49.06-.935.17-1.335.33-.39.16-.705.395-.945.705-.24.3-.36.72-.36 1.26 0 .39.065.73.195 1.02.14.28.325.515.555.705.24.18.515.31.825.39.32.09.66.135 1.02.135.38 0 .705-.035.975-.105.28-.07.525-.17.735-.3.22-.13.415-.29.585-.48.18-.2.355-.425.525-.675h.03c0 .2.01.385.03.555.03.16.085.3.165.42s.19.215.33.285c.15.06.345.09.585.09.13 0 .235-.005.315-.015.09-.01.19-.025.3-.045v-.795a.73.73 0 01-.3.06c-.37 0-.555-.19-.555-.57v-4.11c0-.52-.085-.94-.255-1.26a1.99 1.99 0 00-.66-.765c-.27-.18-.575-.3-.915-.36-.34-.07-.68-.105-1.02-.105-.45 0-.86.05-1.23.15-.37.1-.695.255-.975.465-.27.21-.485.48-.645.81-.16.33-.255.72-.285 1.17zm5.04 1.14V15c0 .38-.075.72-.225 1.02-.14.3-.335.555-.585.765-.24.21-.525.37-.855.48-.33.11-.675.165-1.035.165-.22 0-.435-.035-.645-.105-.21-.07-.395-.17-.555-.3-.16-.14-.29-.3-.39-.48a1.489 1.489 0 01-.135-.645c0-.38.11-.67.33-.87.23-.21.52-.37.87-.48.35-.11.735-.19 1.155-.24.43-.06.845-.125 1.245-.195.13-.02.28-.055.45-.105.17-.05.285-.13.345-.24h.03zm11.638-1.245h.945a2.801 2.801 0 00-.255-1.095c-.15-.31-.355-.57-.615-.78a2.418 2.418 0 00-.885-.465c-.33-.1-.69-.15-1.08-.15-.34 0-.685.04-1.035.12-.34.08-.65.205-.93.375s-.51.395-.69.675c-.17.28-.255.615-.255 1.005 0 .33.055.61.165.84.11.22.26.41.45.57.2.15.43.28.69.39.26.1.545.19.855.27l1.215.27c.21.05.415.11.615.18.21.07.395.16.555.27.16.1.285.23.375.39.1.15.15.34.15.57 0 .27-.07.5-.21.69-.13.18-.3.33-.51.45-.21.12-.44.205-.69.255-.24.05-.475.075-.705.075-.63 0-1.16-.16-1.59-.48-.42-.33-.65-.815-.69-1.455h-.945c.08.95.4 1.64.96 2.07.57.43 1.31.645 2.22.645.36 0 .725-.04 1.095-.12.37-.08.7-.21.99-.39.3-.19.545-.43.735-.72.19-.3.285-.66.285-1.08 0-.34-.065-.635-.195-.885s-.3-.46-.51-.63c-.2-.17-.435-.305-.705-.405a3.26 3.26 0 00-.795-.225l-1.26-.285c-.16-.04-.335-.09-.525-.15a2.839 2.839 0 01-.525-.255c-.16-.1-.295-.22-.405-.36a.95.95 0 01-.15-.54c0-.25.055-.46.165-.63.11-.17.255-.305.435-.405.18-.11.375-.185.585-.225.22-.05.435-.075.645-.075.27 0 .525.035.765.105.24.06.45.16.63.3.19.14.34.32.45.54.11.21.17.46.18.75zm8.152 1.065h-5.01c.04-.35.12-.69.24-1.02.13-.34.3-.635.51-.885.21-.26.465-.465.764-.615.3-.16.645-.24 1.035-.24.38 0 .72.08 1.02.24.3.15.555.355.765.615.21.25.37.54.48.87.12.33.186.675.196 1.035zm-5.01.795h5.954c.02-.54-.03-1.07-.15-1.59a3.91 3.91 0 00-.6-1.395 3.07 3.07 0 00-1.064-.99c-.44-.25-.97-.375-1.59-.375-.61 0-1.14.12-1.59.36-.44.23-.8.54-1.08.93-.28.38-.49.815-.63 1.305-.13.49-.196.99-.196 1.5 0 .55.066 1.075.195 1.575.14.49.35.925.63 1.305.28.37.64.665 1.08.885.45.21.98.315 1.59.315.98 0 1.736-.24 2.266-.72.54-.48.91-1.16 1.11-2.04h-.945c-.15.6-.42 1.08-.81 1.44-.39.36-.93.54-1.62.54-.45 0-.835-.095-1.156-.285a2.62 2.62 0 01-.794-.72 3.03 3.03 0 01-.465-.975 4.505 4.505 0 01-.135-1.065zm12.683-1.695h.945c-.11-.89-.455-1.555-1.035-1.995-.57-.44-1.27-.66-2.1-.66-.59 0-1.115.11-1.575.33-.45.22-.83.515-1.14.885a3.82 3.82 0 00-.705 1.305c-.16.49-.24 1.015-.24 1.575s.08 1.09.24 1.59c.16.49.395.92.705 1.29.31.37.69.665 1.14.885.46.21.985.315 1.575.315.88 0 1.6-.26 2.16-.78.56-.53.905-1.265 1.035-2.205h-.945a2.577 2.577 0 01-.735 1.59c-.2.19-.43.34-.69.45-.26.11-.535.165-.825.165-.45 0-.845-.095-1.185-.285a2.68 2.68 0 01-.855-.75c-.22-.31-.39-.66-.51-1.05-.11-.4-.165-.805-.165-1.215 0-.41.055-.81.165-1.2.12-.4.29-.755.51-1.065.23-.31.515-.56.855-.75.34-.19.735-.285 1.185-.285.63 0 1.12.165 1.47.495.35.33.59.785.72 1.365zm8.588 5.31v-7.74h-.945v4.065c0 .39-.045.775-.135 1.155-.09.37-.23.7-.42.99-.19.29-.43.525-.72.705-.29.17-.64.255-1.05.255-.75 0-1.28-.18-1.59-.54-.3-.36-.46-.89-.48-1.59v-5.04h-.945v5.025c0 .46.05.87.15 1.23.1.36.255.665.465.915.22.25.5.44.84.57.35.14.77.21 1.26.21.58 0 1.105-.135 1.575-.405.48-.28.845-.68 1.095-1.2h.03V18h.87zm1.787-7.74V18h.945v-4.125c0-.41.07-.785.21-1.125.14-.35.335-.65.585-.9.26-.25.565-.44.915-.57.35-.14.74-.2 1.17-.18v-.945c-.7-.03-1.305.125-1.815.465-.5.34-.87.825-1.11 1.455h-.03V10.26h-.87zm10.033 3.33h-5.01c.04-.35.12-.69.24-1.02.13-.34.3-.635.51-.885.21-.26.465-.465.765-.615.3-.16.645-.24 1.035-.24.38 0 .72.08 1.02.24.3.15.555.355.765.615.21.25.37.54.48.87.12.33.185.675.195 1.035zm-5.01.795h5.955c.02-.54-.03-1.07-.15-1.59a3.91 3.91 0 00-.6-1.395 3.07 3.07 0 00-1.065-.99c-.44-.25-.97-.375-1.59-.375-.61 0-1.14.12-1.59.36-.44.23-.8.54-1.08.93-.28.38-.49.815-.63 1.305-.13.49-.195.99-.195 1.5 0 .55.065 1.075.195 1.575.14.49.35.925.63 1.305.28.37.64.665 1.08.885.45.21.98.315 1.59.315.98 0 1.735-.24 2.265-.72.54-.48.91-1.16 1.11-2.04h-.945c-.15.6-.42 1.08-.81 1.44-.39.36-.93.54-1.62.54-.45 0-.835-.095-1.155-.285a2.62 2.62 0 01-.795-.72 3.03 3.03 0 01-.465-.975 4.505 4.505 0 01-.135-1.065zm11.953-4.86v.675h2.775V18h.945V7.5h-.765c-.07.48-.19.855-.36 1.125-.16.26-.365.455-.615.585-.24.13-.53.215-.87.255-.33.03-.7.05-1.11.06zM142.721 18v-.87h-5.835c.06-.35.21-.67.45-.96.24-.3.515-.575.825-.825.32-.25.65-.475.99-.675.34-.21.635-.4.885-.57.35-.22.68-.455.99-.705.32-.26.6-.54.84-.84.25-.3.445-.63.585-.99.15-.36.225-.76.225-1.2 0-.49-.085-.92-.255-1.29-.16-.37-.39-.675-.69-.915a2.79 2.79 0 00-1.035-.555 4.01 4.01 0 00-1.275-.195c-.57 0-1.07.095-1.5.285a2.8 2.8 0 00-1.05.765c-.28.33-.49.725-.63 1.185a5 5 0 00-.18 1.485h.945c-.01-.39.025-.76.105-1.11.09-.35.23-.66.42-.93.19-.27.435-.485.735-.645.31-.16.68-.24 1.11-.24.32 0 .62.05.9.15.29.09.54.23.75.42.22.18.39.405.51.675.13.26.195.56.195.9 0 .42-.075.785-.225 1.095-.14.3-.355.595-.645.885-.29.29-.62.565-.99.825-.36.25-.725.5-1.095.75-.37.24-.73.495-1.08.765-.35.26-.665.55-.945.87-.28.32-.505.68-.675 1.08-.17.4-.26.86-.27 1.38h6.915zm5.05-6.015c-.28.01-.555-.02-.825-.09-.27-.07-.51-.185-.72-.345a1.81 1.81 0 01-.51-.615c-.13-.25-.195-.55-.195-.9 0-.3.06-.565.18-.795.13-.23.3-.42.51-.57.21-.15.45-.265.72-.345.27-.08.55-.12.84-.12.32 0 .615.04.885.12.27.08.505.195.705.345.2.15.355.34.465.57.12.23.18.495.18.795 0 .34-.065.635-.195.885-.12.25-.285.455-.495.615-.2.16-.435.28-.705.36-.27.07-.55.1-.84.09zm3.18-1.95c0-.45-.095-.84-.285-1.17-.18-.33-.425-.6-.735-.81-.3-.22-.64-.38-1.02-.48a4.134 4.134 0 00-2.31 0c-.38.1-.72.26-1.02.48-.3.21-.545.48-.735.81-.18.33-.27.72-.27 1.17 0 .58.145 1.07.435 1.47.3.39.725.67 1.275.84v.03c-.66.12-1.175.425-1.545.915-.37.49-.565 1.08-.585 1.77 0 .53.095.995.285 1.395.19.39.45.715.78.975s.715.455 1.155.585c.44.13.905.195 1.395.195a4.8 4.8 0 001.395-.195c.44-.13.825-.325 1.155-.585.33-.26.59-.585.78-.975.19-.4.285-.865.285-1.395 0-.72-.185-1.31-.555-1.77-.37-.47-.9-.775-1.59-.915v-.03c.54-.16.96-.44 1.26-.84.3-.41.45-.9.45-1.47zm-3.18 7.395c-.37 0-.72-.05-1.05-.15-.32-.1-.6-.245-.84-.435-.24-.2-.43-.45-.57-.75-.14-.3-.21-.645-.21-1.035 0-.38.07-.715.21-1.005.15-.29.345-.53.585-.72.24-.2.52-.345.84-.435.33-.09.675-.13 1.035-.12.35-.01.685.035 1.005.135.33.09.615.235.855.435.25.19.445.43.585.72.15.28.225.61.225.99 0 .4-.07.75-.21 1.05-.14.3-.33.55-.57.75-.24.19-.525.335-.855.435a3.81 3.81 0 01-1.035.135zm5.065-3.12h3.75v-.87h-3.75v.87zm5.551-7.02V18h.87v-1.47h.03c.22.54.575.955 1.065 1.245.5.29 1.065.435 1.695.435.59 0 1.1-.105 1.53-.315.44-.22.805-.515 1.095-.885.29-.38.505-.815.645-1.305.14-.5.21-1.025.21-1.575s-.07-1.07-.21-1.56c-.14-.5-.355-.935-.645-1.305a3.1 3.1 0 00-1.095-.9c-.43-.22-.94-.33-1.53-.33-.28 0-.56.035-.84.105-.28.07-.54.18-.78.33-.24.14-.455.315-.645.525-.18.21-.32.455-.42.735h-.03V7.29h-.945zm6.195 6.84c0 .4-.05.8-.15 1.2-.09.39-.24.74-.45 1.05-.2.31-.46.565-.78.765-.32.19-.705.285-1.155.285-.5 0-.925-.095-1.275-.285-.34-.2-.62-.455-.84-.765a3.33 3.33 0 01-.465-1.05c-.09-.4-.135-.8-.135-1.2 0-.4.045-.795.135-1.185.1-.4.255-.755.465-1.065.22-.31.5-.56.84-.75.35-.2.775-.3 1.275-.3.45 0 .835.1 1.155.3.32.19.58.44.78.75.21.31.36.665.45 1.065.1.39.15.785.15 1.185zm2.434-6.84v1.515h.945V7.29h-.945zm0 2.97V18h.945v-7.74h-.945zm4.253 0V7.935h-.945v2.325h-1.35v.795h1.35v5.295c-.01.66.11 1.115.36 1.365.25.24.69.36 1.32.36.14 0 .28-.005.42-.015.14-.01.28-.015.42-.015v-.795c-.27.03-.54.045-.81.045-.34-.02-.555-.115-.645-.285-.08-.18-.12-.425-.12-.735v-5.22h1.575v-.795h-1.575zm7.773 4.215h-1.02c-.03.66.055 1.225.255 1.695.21.47.505.855.885 1.155.38.3.84.525 1.38.675.54.14 1.125.21 1.755.21.63 0 1.17-.06 1.62-.18.45-.11.825-.255 1.125-.435.31-.19.55-.4.72-.63.18-.23.315-.455.405-.675.1-.23.16-.445.18-.645.03-.2.045-.36.045-.48 0-.44-.075-.815-.225-1.125-.14-.31-.34-.57-.6-.78a3.13 3.13 0 00-.885-.54 6.673 6.673 0 00-1.065-.375l-2.61-.645a4.2 4.2 0 01-.63-.195c-.19-.08-.36-.185-.51-.315-.15-.13-.27-.285-.36-.465a1.69 1.69 0 01-.12-.66c0-.4.075-.735.225-1.005.15-.27.345-.485.585-.645.25-.17.535-.29.855-.36.33-.08.67-.12 1.02-.12.38 0 .74.055 1.08.165.35.1.655.255.915.465.27.2.485.455.645.765.17.3.265.655.285 1.065h1.02c0-.55-.11-1.03-.33-1.44-.21-.42-.495-.77-.855-1.05a3.73 3.73 0 00-1.26-.63c-.48-.14-.985-.21-1.515-.21-.75 0-1.365.11-1.845.33-.48.21-.86.47-1.14.78-.27.31-.455.64-.555.99-.1.35-.15.655-.15.915 0 .42.065.775.195 1.065.14.29.32.535.54.735.22.2.475.36.765.48.3.12.605.22.915.3l2.385.585c.25.06.505.14.765.24.26.09.495.21.705.36.22.15.395.335.525.555.14.22.21.48.21.78 0 .39-.095.725-.285 1.005-.19.27-.43.495-.72.675-.28.17-.585.295-.915.375-.33.08-.635.12-.915.12-.49 0-.95-.045-1.38-.135-.43-.1-.805-.26-1.125-.48a2.288 2.288 0 01-.735-.885c-.18-.37-.265-.83-.255-1.38zm9.449 0h-1.02c-.03.66.055 1.225.255 1.695.21.47.505.855.885 1.155.38.3.84.525 1.38.675.54.14 1.125.21 1.755.21.63 0 1.17-.06 1.62-.18.45-.11.825-.255 1.125-.435.31-.19.55-.4.72-.63.18-.23.315-.455.405-.675.1-.23.16-.445.18-.645.03-.2.045-.36.045-.48 0-.44-.075-.815-.225-1.125-.14-.31-.34-.57-.6-.78a3.13 3.13 0 00-.885-.54 6.673 6.673 0 00-1.065-.375l-2.61-.645a4.2 4.2 0 01-.63-.195c-.19-.08-.36-.185-.51-.315-.15-.13-.27-.285-.36-.465a1.69 1.69 0 01-.12-.66c0-.4.075-.735.225-1.005.15-.27.345-.485.585-.645.25-.17.535-.29.855-.36.33-.08.67-.12 1.02-.12.38 0 .74.055 1.08.165.35.1.655.255.915.465.27.2.485.455.645.765.17.3.265.655.285 1.065h1.02c0-.55-.11-1.03-.33-1.44-.21-.42-.495-.77-.855-1.05a3.73 3.73 0 00-1.26-.63c-.48-.14-.985-.21-1.515-.21-.75 0-1.365.11-1.845.33-.48.21-.86.47-1.14.78-.27.31-.455.64-.555.99-.1.35-.15.655-.15.915 0 .42.065.775.195 1.065.14.29.32.535.54.735.22.2.475.36.765.48.3.12.605.22.915.3l2.385.585c.25.06.505.14.765.24.26.09.495.21.705.36.22.15.395.335.525.555.14.22.21.48.21.78 0 .39-.095.725-.285 1.005-.19.27-.43.495-.72.675-.28.17-.585.295-.915.375-.33.08-.635.12-.915.12-.49 0-.95-.045-1.38-.135-.43-.1-.805-.26-1.125-.48a2.288 2.288 0 01-.735-.885c-.18-.37-.265-.83-.255-1.38zm8.968-7.185V18h7.02v-.87h-6V7.29h-1.02zm17.616 6.3h-5.01c.04-.35.12-.69.24-1.02.13-.34.3-.635.51-.885.21-.26.465-.465.765-.615.3-.16.645-.24 1.035-.24.38 0 .72.08 1.02.24.3.15.555.355.765.615.21.25.37.54.48.87.12.33.185.675.195 1.035zm-5.01.795h5.955c.02-.54-.03-1.07-.15-1.59a3.91 3.91 0 00-.6-1.395 3.07 3.07 0 00-1.065-.99c-.44-.25-.97-.375-1.59-.375-.61 0-1.14.12-1.59.36-.44.23-.8.54-1.08.93-.28.38-.49.815-.63 1.305-.13.49-.195.99-.195 1.5 0 .55.065 1.075.195 1.575.14.49.35.925.63 1.305.28.37.64.665 1.08.885.45.21.98.315 1.59.315.98 0 1.735-.24 2.265-.72.54-.48.91-1.16 1.11-2.04h-.945c-.15.6-.42 1.08-.81 1.44-.39.36-.93.54-1.62.54-.45 0-.835-.095-1.155-.285a2.62 2.62 0 01-.795-.72 3.03 3.03 0 01-.465-.975 4.505 4.505 0 01-.135-1.065zm7.209-4.125V18h.945v-4.515c.01-.38.07-.73.18-1.05.12-.33.28-.61.48-.84.21-.24.46-.425.75-.555.3-.14.64-.21 1.02-.21s.695.06.945.18c.26.12.465.285.615.495.15.21.255.46.315.75.06.28.09.585.09.915V18h.945v-4.98c0-.46-.045-.875-.135-1.245a2.15 2.15 0 00-.465-.93c-.22-.26-.515-.46-.885-.6-.36-.14-.81-.21-1.35-.21-.55 0-1.055.145-1.515.435-.46.28-.78.655-.96 1.125h-.03V10.26h-.945zm13.531 2.43h.945c-.11-.89-.455-1.555-1.035-1.995-.57-.44-1.27-.66-2.1-.66-.59 0-1.115.11-1.575.33-.45.22-.83.515-1.14.885a3.82 3.82 0 00-.705 1.305c-.16.49-.24 1.015-.24 1.575s.08 1.09.24 1.59c.16.49.395.92.705 1.29.31.37.69.665 1.14.885.46.21.985.315 1.575.315.88 0 1.6-.26 2.16-.78.56-.53.905-1.265 1.035-2.205h-.945a2.577 2.577 0 01-.735 1.59c-.2.19-.43.34-.69.45-.26.11-.535.165-.825.165-.45 0-.845-.095-1.185-.285a2.68 2.68 0 01-.855-.75c-.22-.31-.39-.66-.51-1.05-.11-.4-.165-.805-.165-1.215 0-.41.055-.81.165-1.2.12-.4.29-.755.51-1.065.23-.31.515-.56.855-.75.34-.19.735-.285 1.185-.285.63 0 1.12.165 1.47.495.35.33.59.785.72 1.365zm2.319-2.43V18h.945v-4.125c0-.41.07-.785.21-1.125.14-.35.335-.65.585-.9.26-.25.565-.44.915-.57.35-.14.74-.2 1.17-.18v-.945c-.7-.03-1.305.125-1.815.465-.5.34-.87.825-1.11 1.455h-.03V10.26h-.87zm3.861 0l3.09 7.71-.33.87c-.08.18-.155.345-.225.495-.07.15-.155.275-.255.375-.1.11-.22.195-.36.255-.13.06-.3.09-.51.09-.11 0-.22-.01-.33-.03-.1-.01-.205-.025-.315-.045v.795c.08.03.17.045.27.045.11.01.26.02.45.03.3 0 .545-.03.735-.09.2-.05.37-.14.51-.27.15-.12.285-.29.405-.51.12-.21.25-.48.39-.81l3.36-8.91h-.945l-2.385 6.6-2.55-6.6h-1.005zm7.813 0v10.59h.945v-4.32h.03c.1.28.24.525.42.735.19.21.405.385.645.525s.5.245.78.315.56.105.84.105c.59 0 1.1-.105 1.53-.315.44-.22.805-.515 1.095-.885.29-.38.505-.815.645-1.305.14-.5.21-1.025.21-1.575s-.07-1.07-.21-1.56c-.14-.5-.355-.935-.645-1.305a3.1 3.1 0 00-1.095-.9c-.43-.22-.94-.33-1.53-.33-.63 0-1.195.15-1.695.45-.49.29-.845.705-1.065 1.245h-.03v-1.47h-.87zm6.195 3.87c0 .4-.05.8-.15 1.2-.09.39-.24.74-.45 1.05-.2.31-.46.565-.78.765-.32.19-.705.285-1.155.285-.5 0-.925-.095-1.275-.285-.34-.2-.62-.455-.84-.765a3.33 3.33 0 01-.465-1.05c-.09-.4-.135-.8-.135-1.2 0-.44.04-.86.12-1.26.09-.4.24-.75.45-1.05.21-.3.49-.54.84-.72.35-.18.785-.27 1.305-.27.45 0 .835.1 1.155.3.32.19.58.44.78.75.21.31.36.665.45 1.065.1.39.15.785.15 1.185zm3.919-3.87V7.935h-.945v2.325h-1.35v.795h1.35v5.295c-.01.66.11 1.115.36 1.365.25.24.69.36 1.32.36.14 0 .28-.005.42-.015.14-.01.28-.015.42-.015v-.795c-.27.03-.54.045-.81.045-.34-.02-.555-.115-.645-.285-.08-.18-.12-.425-.12-.735v-5.22h1.575v-.795h-1.575zm8.503 3.33h-5.01c.04-.35.12-.69.24-1.02.13-.34.3-.635.51-.885.21-.26.465-.465.765-.615.3-.16.645-.24 1.035-.24.38 0 .72.08 1.02.24.3.15.555.355.765.615.21.25.37.54.48.87.12.33.185.675.195 1.035zm-5.01.795h5.955c.02-.54-.03-1.07-.15-1.59a3.91 3.91 0 00-.6-1.395 3.07 3.07 0 00-1.065-.99c-.44-.25-.97-.375-1.59-.375-.61 0-1.14.12-1.59.36-.44.23-.8.54-1.08.93-.28.38-.49.815-.63 1.305-.13.49-.195.99-.195 1.5 0 .55.065 1.075.195 1.575.14.49.35.925.63 1.305.28.37.64.665 1.08.885.45.21.98.315 1.59.315.98 0 1.735-.24 2.265-.72.54-.48.91-1.16 1.11-2.04h-.945c-.15.6-.42 1.08-.81 1.44-.39.36-.93.54-1.62.54-.45 0-.835-.095-1.155-.285a2.62 2.62 0 01-.795-.72 3.03 3.03 0 01-.465-.975 4.505 4.505 0 01-.135-1.065zM272.439 18V7.29h-.945v4.44h-.03a2.17 2.17 0 00-.435-.735c-.18-.21-.39-.385-.63-.525-.24-.15-.5-.26-.78-.33-.27-.07-.55-.105-.84-.105-.59 0-1.105.11-1.545.33-.43.22-.79.52-1.08.9-.29.37-.505.805-.645 1.305-.14.49-.21 1.01-.21 1.56s.07 1.075.21 1.575c.14.49.355.925.645 1.305.29.37.65.665 1.08.885.44.21.955.315 1.545.315.28 0 .56-.04.84-.12.29-.08.56-.19.81-.33.25-.15.47-.33.66-.54.2-.21.35-.44.45-.69h.03V18h.87zm-6.195-3.87c0-.4.045-.795.135-1.185.1-.4.25-.755.45-1.065.21-.31.475-.56.795-.75.32-.2.705-.3 1.155-.3.5 0 .92.1 1.26.3.35.19.63.44.84.75.22.31.375.665.465 1.065.1.39.15.785.15 1.185s-.05.8-.15 1.2c-.09.39-.245.74-.465 1.05-.21.31-.49.565-.84.765-.34.19-.76.285-1.26.285-.45 0-.835-.095-1.155-.285-.32-.2-.585-.455-.795-.765-.2-.31-.35-.66-.45-1.05-.09-.4-.135-.8-.135-1.2zm12.173-3.87v10.59h.945v-4.32h.03c.1.28.24.525.42.735.19.21.405.385.645.525s.5.245.78.315.56.105.84.105c.59 0 1.1-.105 1.53-.315.44-.22.805-.515 1.095-.885.29-.38.505-.815.645-1.305.14-.5.21-1.025.21-1.575s-.07-1.07-.21-1.56c-.14-.5-.355-.935-.645-1.305a3.1 3.1 0 00-1.095-.9c-.43-.22-.94-.33-1.53-.33-.63 0-1.195.15-1.695.45-.49.29-.845.705-1.065 1.245h-.03v-1.47h-.87zm6.195 3.87c0 .4-.05.8-.15 1.2-.09.39-.24.74-.45 1.05-.2.31-.46.565-.78.765-.32.19-.705.285-1.155.285-.5 0-.925-.095-1.275-.285-.34-.2-.62-.455-.84-.765a3.33 3.33 0 01-.465-1.05c-.09-.4-.135-.8-.135-1.2 0-.44.04-.86.12-1.26.09-.4.24-.75.45-1.05.21-.3.49-.54.84-.72.35-.18.785-.27 1.305-.27.45 0 .835.1 1.155.3.32.19.58.44.78.75.21.31.36.665.45 1.065.1.39.15.785.15 1.185zm2.328-1.5h.945c.02-.63.22-1.085.6-1.365.38-.29.87-.435 1.47-.435.28 0 .54.025.78.075.25.04.465.12.645.24.19.12.335.285.435.495.11.2.165.46.165.78 0 .21-.03.38-.09.51a.729.729 0 01-.225.315c-.1.07-.225.12-.375.15s-.325.055-.525.075c-.51.06-1.015.125-1.515.195-.49.06-.935.17-1.335.33-.39.16-.705.395-.945.705-.24.3-.36.72-.36 1.26 0 .39.065.73.195 1.02.14.28.325.515.555.705.24.18.515.31.825.39.32.09.66.135 1.02.135.38 0 .705-.035.975-.105.28-.07.525-.17.735-.3.22-.13.415-.29.585-.48.18-.2.355-.425.525-.675h.03c0 .2.01.385.03.555.03.16.085.3.165.42s.19.215.33.285c.15.06.345.09.585.09.13 0 .235-.005.315-.015.09-.01.19-.025.3-.045v-.795a.73.73 0 01-.3.06c-.37 0-.555-.19-.555-.57v-4.11c0-.52-.085-.94-.255-1.26a1.99 1.99 0 00-.66-.765c-.27-.18-.575-.3-.915-.36-.34-.07-.68-.105-1.02-.105-.45 0-.86.05-1.23.15-.37.1-.695.255-.975.465-.27.21-.485.48-.645.81-.16.33-.255.72-.285 1.17zm5.04 1.14V15c0 .38-.075.72-.225 1.02-.14.3-.335.555-.585.765-.24.21-.525.37-.855.48-.33.11-.675.165-1.035.165-.22 0-.435-.035-.645-.105-.21-.07-.395-.17-.555-.3-.16-.14-.29-.3-.39-.48a1.489 1.489 0 01-.135-.645c0-.38.11-.67.33-.87.23-.21.52-.37.87-.48.35-.11.735-.19 1.155-.24.43-.06.845-.125 1.245-.195.13-.02.28-.055.45-.105.17-.05.285-.13.345-.24h.03zm1.958-3.51l3.09 7.71-.33.87c-.08.18-.155.345-.225.495-.07.15-.155.275-.255.375-.1.11-.22.195-.36.255-.13.06-.3.09-.51.09-.11 0-.22-.01-.33-.03-.1-.01-.205-.025-.315-.045v.795c.08.03.17.045.27.045.11.01.26.02.45.03.3 0 .545-.03.735-.09.2-.05.37-.14.51-.27.15-.12.285-.29.405-.51.12-.21.25-.48.39-.81l3.36-8.91h-.945l-2.385 6.6-2.55-6.6h-1.005zm7.814 0V18h.945v-4.32c0-.41.045-.785.135-1.125.09-.35.225-.65.405-.9.19-.26.43-.46.72-.6.3-.15.65-.225 1.05-.225.3 0 .555.05.765.15.21.1.375.24.495.42.13.17.22.375.27.615.06.23.09.475.09.735V18h.945v-4.38c0-.36.03-.705.09-1.035.07-.34.185-.64.345-.9.16-.26.375-.465.645-.615.27-.16.61-.24 1.02-.24.68 0 1.155.17 1.425.51.27.33.405.815.405 1.455V18h.945v-5.25c0-1.81-.855-2.715-2.565-2.715-.51 0-.99.125-1.44.375-.45.25-.79.63-1.02 1.14-.14-.51-.42-.89-.84-1.14-.41-.25-.87-.375-1.38-.375-.63 0-1.15.135-1.56.405-.4.27-.725.645-.975 1.125h-.045V10.26h-.87zm18.06 3.33h-5.01c.04-.35.12-.69.24-1.02.13-.34.3-.635.51-.885.21-.26.465-.465.765-.615.3-.16.645-.24 1.035-.24.38 0 .72.08 1.02.24.3.15.555.355.765.615.21.25.37.54.48.87.12.33.185.675.195 1.035zm-5.01.795h5.955c.02-.54-.03-1.07-.15-1.59a3.91 3.91 0 00-.6-1.395 3.07 3.07 0 00-1.065-.99c-.44-.25-.97-.375-1.59-.375-.61 0-1.14.12-1.59.36-.44.23-.8.54-1.08.93-.28.38-.49.815-.63 1.305-.13.49-.195.99-.195 1.5 0 .55.065 1.075.195 1.575.14.49.35.925.63 1.305.28.37.64.665 1.08.885.45.21.98.315 1.59.315.98 0 1.735-.24 2.265-.72.54-.48.91-1.16 1.11-2.04h-.945c-.15.6-.42 1.08-.81 1.44-.39.36-.93.54-1.62.54-.45 0-.835-.095-1.155-.285a2.62 2.62 0 01-.795-.72 3.03 3.03 0 01-.465-.975 4.505 4.505 0 01-.135-1.065zm7.208-4.125V18h.945v-4.515c.01-.38.07-.73.18-1.05.12-.33.28-.61.48-.84.21-.24.46-.425.75-.555.3-.14.64-.21 1.02-.21s.695.06.945.18c.26.12.465.285.615.495.15.21.255.46.315.75.06.28.09.585.09.915V18h.945v-4.98c0-.46-.045-.875-.135-1.245a2.15 2.15 0 00-.465-.93c-.22-.26-.515-.46-.885-.6-.36-.14-.81-.21-1.35-.21-.55 0-1.055.145-1.515.435-.46.28-.78.655-.96 1.125h-.03V10.26h-.945zm9.572 0V7.935h-.945v2.325h-1.35v.795h1.35v5.295c-.01.66.11 1.115.36 1.365.25.24.69.36 1.32.36.14 0 .28-.005.42-.015.14-.01.28-.015.42-.015v-.795c-.27.03-.54.045-.81.045-.34-.02-.555-.115-.645-.285-.08-.18-.12-.425-.12-.735v-5.22h1.575v-.795h-1.575z" fill="#6B6B6B"/><rect x="8" y="14.35" width="11" height="11" rx="5.5" fill="#7ED321"/><path fill-rule="evenodd" clip-rule="evenodd" d="M16.269 18.114c.2.2.2.526 0 .726l-3.32 3.325a.511.511 0 01-.725 0l-1.406-1.408a.514.514 0 01.726-.727l1.043 1.045 2.957-2.962c.2-.2.524-.2.725 0z" fill="#fff"/></svg>