<svg width="227" height="17" fill="none" xmlns="http://www.w3.org/2000/svg"><path fill-rule="evenodd" clip-rule="evenodd" d="M0 0h8.064v.684H.792v5.148h6.552v.684H.792v6.336H0V0zm9.378 5.652h.054c.084-.3.237-.582.459-.846.222-.264.492-.492.81-.684a4 4 0 011.062-.441c.39-.102.795-.147 1.215-.135v.684c-.36-.048-.771-.012-1.233.108-.462.12-.903.384-1.323.792a6.39 6.39 0 00-.441.522 2.532 2.532 0 00-.315.558 3.53 3.53 0 00-.198.684 5.984 5.984 0 00-.09.9v5.058h-.684V3.6h.684v2.052zm3.672 2.574c0-.66.093-1.281.279-1.863a4.678 4.678 0 01.819-1.539 3.89 3.89 0 011.332-1.053c.528-.258 1.134-.387 1.818-.387.684 0 1.29.129 1.818.387a3.89 3.89 0 011.332 1.053c.36.444.633.957.819 1.539.186.582.279 1.203.279 1.863 0 .66-.093 1.284-.279 1.872a4.561 4.561 0 01-.819 1.539c-.36.438-.804.786-1.332 1.044s-1.134.387-1.818.387c-.684 0-1.29-.129-1.818-.387a3.938 3.938 0 01-1.332-1.044 4.561 4.561 0 01-.819-1.539 6.171 6.171 0 01-.279-1.872zm.684 0c0 .552.078 1.083.234 1.593.156.51.384.963.684 1.359.3.396.672.711 1.116.945.444.234.954.351 1.53.351.576 0 1.086-.117 1.53-.351a3.33 3.33 0 001.116-.945c.3-.396.528-.849.684-1.359.156-.51.234-1.041.234-1.593s-.078-1.083-.234-1.593a4.322 4.322 0 00-.684-1.359 3.33 3.33 0 00-1.116-.945c-.444-.234-.954-.351-1.53-.351-.576 0-1.086.117-1.53.351a3.33 3.33 0 00-1.116.945c-.3.396-.528.849-.684 1.359a5.415 5.415 0 00-.234 1.593zM23.148 3.6h.684v1.98h.036a2.97 2.97 0 01.513-.927 3.41 3.41 0 011.737-1.125 3.976 3.976 0 011.062-.144c.54 0 .999.066 1.377.198s.687.306.927.522c.24.216.429.459.567.729.138.27.237.543.297.819.06.276.096.543.108.801.012.258.018.483.018.675v5.724h-.684v-5.85a8.69 8.69 0 00-.054-.864 2.627 2.627 0 00-.315-.999 2.287 2.287 0 00-.792-.819c-.354-.228-.843-.342-1.467-.342-.528 0-.996.096-1.404.288a3.041 3.041 0 00-1.044.801c-.288.342-.507.75-.657 1.224-.15.474-.225.993-.225 1.557v5.004h-.684V3.6zm12.744.594h-2.016v6.462c0 .372.042.666.126.882.084.216.213.381.387.495.174.114.384.183.63.207.246.024.531.03.855.018v.594a6.376 6.376 0 01-1.017-.009c-.33-.03-.621-.12-.873-.27a1.583 1.583 0 01-.603-.675c-.15-.3-.213-.714-.189-1.242V4.194h-1.71V3.6h1.71V.72h.684V3.6h2.016v.594zm1.494 3.42h3.852v.684h-3.852v-.684zm6.372.702v.108c0 .54.072 1.056.216 1.548.144.492.357.924.639 1.296.282.372.636.666 1.062.882.426.216.921.324 1.485.324.924 0 1.656-.243 2.196-.729.54-.486.912-1.161 1.116-2.025h.684c-.204 1.08-.645 1.908-1.323 2.484-.678.576-1.575.864-2.691.864-.684 0-1.281-.123-1.791-.369a3.645 3.645 0 01-1.278-1.008 4.28 4.28 0 01-.765-1.512 6.756 6.756 0 01-.252-1.881c0-.648.087-1.269.261-1.863a4.683 4.683 0 01.783-1.566c.348-.45.783-.81 1.305-1.08.522-.27 1.137-.405 1.845-.405.648 0 1.221.12 1.719.36a3.6 3.6 0 011.251.981c.336.414.591.894.765 1.44.174.546.261 1.131.261 1.755 0 .06-.003.129-.009.207a2.577 2.577 0 00-.009.189h-7.47zm6.786-.594a5.54 5.54 0 00-.252-1.431 3.544 3.544 0 00-.639-1.188 3.178 3.178 0 00-1.026-.819 3.001 3.001 0 00-1.377-.306c-.552 0-1.038.105-1.458.315-.42.21-.774.486-1.062.828-.288.342-.51.741-.666 1.197a5.618 5.618 0 00-.288 1.404h6.768zM52.83 3.6h.684v1.98h.036a2.97 2.97 0 01.513-.927A3.41 3.41 0 0155.8 3.528a3.976 3.976 0 011.062-.144c.54 0 .999.066 1.377.198s.687.306.927.522c.24.216.429.459.567.729.138.27.237.543.297.819.06.276.096.543.108.801.012.258.018.483.018.675v5.724h-.684v-5.85a8.69 8.69 0 00-.054-.864 2.627 2.627 0 00-.315-.999 2.287 2.287 0 00-.792-.819c-.354-.228-.843-.342-1.467-.342-.528 0-.996.096-1.404.288a3.041 3.041 0 00-1.044.801c-.288.342-.507.75-.657 1.224-.15.474-.225.993-.225 1.557v5.004h-.684V3.6zm16.488 7.272h-.036c-.384.732-.864 1.281-1.44 1.647-.576.366-1.278.549-2.106.549-.696 0-1.296-.132-1.8-.396a3.555 3.555 0 01-1.242-1.062 4.605 4.605 0 01-.72-1.539 7.027 7.027 0 01-.234-1.827c0-.684.084-1.323.252-1.917a4.359 4.359 0 01.765-1.539 3.67 3.67 0 011.287-1.026c.516-.252 1.122-.378 1.818-.378a4.009 4.009 0 012.097.594 3.153 3.153 0 011.323 1.692h.036V0h.684v12.852h-.684v-1.98zm-3.438 1.602c.588 0 1.095-.12 1.521-.36a3.24 3.24 0 001.062-.954 4.22 4.22 0 00.63-1.359 6.003 6.003 0 000-3.132 4.448 4.448 0 00-.621-1.368 3.065 3.065 0 00-1.071-.963c-.438-.24-.951-.36-1.539-.36-.612 0-1.134.117-1.566.351a3.122 3.122 0 00-1.071.945 3.945 3.945 0 00-.612 1.368 6.73 6.73 0 00-.189 1.602c0 .54.069 1.065.207 1.575.138.51.348.963.63 1.359.282.396.639.711 1.071.945.432.234.948.351 1.548.351zM77.31 0h4.212c1.152 0 2.109.18 2.871.54.762.36 1.371.84 1.827 1.44.456.6.777 1.284.963 2.052.186.768.279 1.56.279 2.376a8.89 8.89 0 01-.351 2.547 5.532 5.532 0 01-1.089 2.043 5.117 5.117 0 01-1.863 1.359c-.75.33-1.641.495-2.673.495H77.31V0zm4.248 12.168c.6 0 1.203-.093 1.809-.279a4.395 4.395 0 001.647-.936c.492-.438.891-1.026 1.197-1.764.306-.738.459-1.665.459-2.781 0-.876-.087-1.626-.261-2.25-.174-.624-.402-1.149-.684-1.575a3.555 3.555 0 00-.972-1.008 4.774 4.774 0 00-1.134-.567 5.469 5.469 0 00-1.17-.261 9.928 9.928 0 00-1.053-.063h-3.294v11.484h3.456zm7.902-3.852v.108c0 .54.072 1.056.216 1.548.144.492.357.924.639 1.296.282.372.636.666 1.062.882.426.216.921.324 1.485.324.924 0 1.656-.243 2.196-.729.54-.486.912-1.161 1.116-2.025h.684c-.204 1.08-.645 1.908-1.323 2.484-.678.576-1.575.864-2.691.864-.684 0-1.281-.123-1.791-.369a3.645 3.645 0 01-1.278-1.008 4.28 4.28 0 01-.765-1.512 6.756 6.756 0 01-.252-1.881c0-.648.087-1.269.261-1.863a4.683 4.683 0 01.783-1.566c.348-.45.783-.81 1.305-1.08.522-.27 1.137-.405 1.845-.405.648 0 1.221.12 1.719.36a3.6 3.6 0 011.251.981c.336.414.591.894.765 1.44.174.546.261 1.131.261 1.755 0 .06-.003.129-.009.207a2.577 2.577 0 00-.009.189h-7.47zm6.786-.594a5.54 5.54 0 00-.252-1.431 3.544 3.544 0 00-.639-1.188 3.178 3.178 0 00-1.026-.819 3.001 3.001 0 00-1.377-.306c-.552 0-1.038.105-1.458.315-.42.21-.774.486-1.062.828-.288.342-.51.741-.666 1.197a5.618 5.618 0 00-.288 1.404h6.768zm5.814 5.13h-.846L97.488 3.6h.792l3.348 8.46h.036l3.132-8.46h.756l-3.492 9.252zm4.734-4.536v.108c0 .54.072 1.056.216 1.548.144.492.357.924.639 1.296.282.372.636.666 1.062.882.426.216.921.324 1.485.324.924 0 1.656-.243 2.196-.729.54-.486.912-1.161 1.116-2.025h.684c-.204 1.08-.645 1.908-1.323 2.484-.678.576-1.575.864-2.691.864-.684 0-1.281-.123-1.791-.369a3.645 3.645 0 01-1.278-1.008 4.28 4.28 0 01-.765-1.512 6.756 6.756 0 01-.252-1.881c0-.648.087-1.269.261-1.863a4.683 4.683 0 01.783-1.566c.348-.45.783-.81 1.305-1.08.522-.27 1.137-.405 1.845-.405.648 0 1.221.12 1.719.36a3.6 3.6 0 011.251.981c.336.414.591.894.765 1.44.174.546.261 1.131.261 1.755 0 .06-.003.129-.009.207a2.577 2.577 0 00-.009.189h-7.47zm6.786-.594a5.54 5.54 0 00-.252-1.431 3.544 3.544 0 00-.639-1.188 3.178 3.178 0 00-1.026-.819 3.001 3.001 0 00-1.377-.306c-.552 0-1.038.105-1.458.315-.42.21-.774.486-1.062.828-.288.342-.51.741-.666 1.197a5.618 5.618 0 00-.288 1.404h6.768zM116.712 0v12.852h-.684V0h.684zm1.746 8.226c0-.66.093-1.281.279-1.863a4.678 4.678 0 01.819-1.539 3.89 3.89 0 011.332-1.053c.528-.258 1.134-.387 1.818-.387.684 0 1.29.129 1.818.387a3.89 3.89 0 011.332 1.053c.36.444.633.957.819 1.539.186.582.279 1.203.279 1.863 0 .66-.093 1.284-.279 1.872a4.561 4.561 0 01-.819 1.539c-.36.438-.804.786-1.332 1.044s-1.134.387-1.818.387c-.684 0-1.29-.129-1.818-.387a3.938 3.938 0 01-1.332-1.044 4.561 4.561 0 01-.819-1.539 6.171 6.171 0 01-.279-1.872zm.684 0c0 .552.078 1.083.234 1.593.156.51.384.963.684 1.359.3.396.672.711 1.116.945.444.234.954.351 1.53.351.576 0 1.086-.117 1.53-.351a3.33 3.33 0 001.116-.945c.3-.396.528-.849.684-1.359.156-.51.234-1.041.234-1.593s-.078-1.083-.234-1.593a4.322 4.322 0 00-.684-1.359 3.33 3.33 0 00-1.116-.945c-.444-.234-.954-.351-1.53-.351-.576 0-1.086.117-1.53.351a3.33 3.33 0 00-1.116.945c-.3.396-.528.849-.684 1.359a5.415 5.415 0 00-.234 1.593zm10.26-2.502h.036c.072-.228.192-.48.36-.756.168-.276.39-.531.666-.765.276-.234.609-.429.999-.585a3.59 3.59 0 011.341-.234c.708 0 1.323.132 1.845.396s.954.618 1.296 1.062c.342.444.597.96.765 1.548.168.588.252 1.206.252 1.854 0 .708-.084 1.356-.252 1.944a4.273 4.273 0 01-.765 1.521 3.518 3.518 0 01-1.296.999c-.522.24-1.137.36-1.845.36-.768 0-1.452-.168-2.052-.504-.6-.336-1.038-.882-1.314-1.638h-.036v5.238h-.684V3.6h.684v2.124zm3.402 6.75c.6 0 1.119-.114 1.557-.342a3.087 3.087 0 001.08-.918 4.01 4.01 0 00.63-1.341c.138-.51.207-1.053.207-1.629 0-.528-.066-1.047-.198-1.557a4.296 4.296 0 00-.612-1.368 3.15 3.15 0 00-1.071-.972c-.438-.246-.969-.369-1.593-.369-.612 0-1.134.12-1.566.36-.432.24-.783.558-1.053.954-.27.396-.465.849-.585 1.359-.12.51-.18 1.041-.18 1.593s.054 1.083.162 1.593c.108.51.291.96.549 1.35.258.39.606.702 1.044.936.438.234.981.351 1.629.351zm6.03-4.158v.108c0 .54.072 1.056.216 1.548.144.492.357.924.639 1.296.282.372.636.666 1.062.882.426.216.921.324 1.485.324.924 0 1.656-.243 2.196-.729.54-.486.912-1.161 1.116-2.025h.684c-.204 1.08-.645 1.908-1.323 2.484-.678.576-1.575.864-2.691.864-.684 0-1.281-.123-1.791-.369a3.645 3.645 0 01-1.278-1.008 4.28 4.28 0 01-.765-1.512 6.756 6.756 0 01-.252-1.881c0-.648.087-1.269.261-1.863a4.683 4.683 0 01.783-1.566c.348-.45.783-.81 1.305-1.08.522-.27 1.137-.405 1.845-.405.648 0 1.221.12 1.719.36a3.6 3.6 0 011.251.981c.336.414.591.894.765 1.44.174.546.261 1.131.261 1.755 0 .06-.003.129-.009.207a2.577 2.577 0 00-.009.189h-7.47zm6.786-.594a5.54 5.54 0 00-.252-1.431 3.544 3.544 0 00-.639-1.188 3.178 3.178 0 00-1.026-.819 3.001 3.001 0 00-1.377-.306c-.552 0-1.038.105-1.458.315-.42.21-.774.486-1.062.828-.288.342-.51.741-.666 1.197a5.618 5.618 0 00-.288 1.404h6.768zm2.97-2.07h.054c.084-.3.237-.582.459-.846.222-.264.492-.492.81-.684a4 4 0 011.062-.441c.39-.102.795-.147 1.215-.135v.684c-.36-.048-.771-.012-1.233.108-.462.12-.903.384-1.323.792a6.39 6.39 0 00-.441.522 2.532 2.532 0 00-.315.558 3.53 3.53 0 00-.198.684 5.984 5.984 0 00-.09.9v5.058h-.684V3.6h.684v2.052zm8.064-4.968V0h9.846v.684h-4.536v12.168h-.792V.684h-4.518zm9.144 7.632v.108c0 .54.072 1.056.216 1.548.144.492.357.924.639 1.296.282.372.636.666 1.062.882.426.216.921.324 1.485.324.924 0 1.656-.243 2.196-.729.54-.486.912-1.161 1.116-2.025h.684c-.204 1.08-.645 1.908-1.323 2.484-.678.576-1.575.864-2.691.864-.684 0-1.281-.123-1.791-.369a3.645 3.645 0 01-1.278-1.008 4.28 4.28 0 01-.765-1.512 6.756 6.756 0 01-.252-1.881c0-.648.087-1.269.261-1.863a4.683 4.683 0 01.783-1.566c.348-.45.783-.81 1.305-1.08.522-.27 1.137-.405 1.845-.405.648 0 1.221.12 1.719.36a3.6 3.6 0 011.251.981c.336.414.591.894.765 1.44.174.546.261 1.131.261 1.755 0 .06-.003.129-.009.207a2.577 2.577 0 00-.009.189h-7.47zm6.786-.594a5.54 5.54 0 00-.252-1.431 3.544 3.544 0 00-.639-1.188 3.178 3.178 0 00-1.026-.819 3.001 3.001 0 00-1.377-.306c-.552 0-1.038.105-1.458.315-.42.21-.774.486-1.062.828-.288.342-.51.741-.666 1.197a5.618 5.618 0 00-.288 1.404h6.768zm2.61 2.052c.024.432.12.813.288 1.143.168.33.387.612.657.846.27.234.585.411.945.531.36.12.75.18 1.17.18.3 0 .621-.027.963-.081a3.34 3.34 0 00.954-.297 1.98 1.98 0 00.729-.603c.192-.258.288-.585.288-.981 0-.516-.156-.906-.468-1.17-.312-.264-.705-.468-1.179-.612a11.954 11.954 0 00-1.53-.351 7.936 7.936 0 01-1.53-.405 3.114 3.114 0 01-1.179-.765c-.312-.33-.468-.813-.468-1.449 0-.456.102-.837.306-1.143.204-.306.465-.549.783-.729.318-.18.675-.309 1.071-.387a6.134 6.134 0 011.188-.117c.48 0 .93.054 1.35.162.42.108.783.282 1.089.522.306.24.546.546.72.918.174.372.261.822.261 1.35h-.684c0-.42-.069-.78-.207-1.08a1.88 1.88 0 00-.576-.729 2.504 2.504 0 00-.873-.414 4.16 4.16 0 00-1.08-.135c-.312 0-.627.03-.945.09a2.73 2.73 0 00-.855.306c-.252.144-.459.33-.621.558a1.392 1.392 0 00-.243.828c0 .372.09.672.27.9.18.228.417.411.711.549.294.138.624.249.99.333l1.107.252c.456.084.885.183 1.287.297.402.114.75.27 1.044.468.294.198.525.453.693.765.168.312.252.708.252 1.188 0 .504-.114.918-.342 1.242a2.638 2.638 0 01-.864.783 3.662 3.662 0 01-1.161.414 6.938 6.938 0 01-1.251.117 4.982 4.982 0 01-1.467-.207 3.329 3.329 0 01-1.179-.63 3 3 0 01-.792-1.035c-.192-.408-.294-.882-.306-1.422h.684zm11.736-5.58h-2.016v6.462c0 .372.042.666.126.882.084.216.213.381.387.495.174.114.384.183.63.207.246.024.531.03.855.018v.594a6.376 6.376 0 01-1.017-.009c-.33-.03-.621-.12-.873-.27a1.583 1.583 0 01-.603-.675c-.15-.3-.213-.714-.189-1.242V4.194h-1.71V3.6h1.71V.72h.684V3.6h2.016v.594zm5.004-3.51V0h9.846v.684h-4.536v12.168h-.792V.684h-4.518zm15.012 10.332h-.036a2.854 2.854 0 01-.468.783 3.316 3.316 0 01-.747.657 3.702 3.702 0 01-.999.45c-.372.108-.78.162-1.224.162-.984 0-1.746-.213-2.286-.639-.54-.426-.81-1.083-.81-1.971 0-.54.108-.981.324-1.323.216-.342.489-.612.819-.81.33-.198.696-.339 1.098-.423.402-.084.789-.144 1.161-.18l1.062-.09c.492-.036.879-.093 1.161-.171.282-.078.495-.186.639-.324a.923.923 0 00.27-.531c.036-.216.054-.486.054-.81a1.573 1.573 0 00-.594-1.278 2.227 2.227 0 00-.792-.396c-.324-.096-.72-.144-1.188-.144-.828 0-1.497.204-2.007.612-.51.408-.789 1.026-.837 1.854h-.684c.048-1.02.375-1.785.981-2.295s1.467-.765 2.583-.765 1.929.219 2.439.657c.51.438.765 1.011.765 1.719v5.382c0 .132.003.264.009.396.006.132.027.252.063.36a.54.54 0 00.18.261c.084.066.204.099.36.099.12 0 .288-.018.504-.054v.576c-.18.048-.366.072-.558.072-.276 0-.495-.036-.657-.108a.865.865 0 01-.369-.288 1.066 1.066 0 01-.171-.423 2.921 2.921 0 01-.045-.531v-.486zm0-3.42c-.168.204-.423.342-.765.414a9.523 9.523 0 01-1.143.162l-1.152.108c-.336.036-.672.087-1.008.153a2.932 2.932 0 00-.909.333 1.86 1.86 0 00-.657.639c-.168.27-.252.621-.252 1.053 0 .684.216 1.191.648 1.521.432.33 1.026.495 1.782.495.78 0 1.398-.141 1.854-.423.456-.282.804-.606 1.044-.972s.393-.72.459-1.062c.066-.342.099-.573.099-.693V7.596zm3.186 2.178c.024.432.12.813.288 1.143.168.33.387.612.657.846.27.234.585.411.945.531.36.12.75.18 1.17.18.3 0 .621-.027.963-.081a3.34 3.34 0 00.954-.297 1.98 1.98 0 00.729-.603c.192-.258.288-.585.288-.981 0-.516-.156-.906-.468-1.17-.312-.264-.705-.468-1.179-.612a11.954 11.954 0 00-1.53-.351 7.936 7.936 0 01-1.53-.405 3.114 3.114 0 01-1.179-.765c-.312-.33-.468-.813-.468-1.449 0-.456.102-.837.306-1.143.204-.306.465-.549.783-.729.318-.18.675-.309 1.071-.387a6.134 6.134 0 011.188-.117c.48 0 .93.054 1.35.162.42.108.783.282 1.089.522.306.24.546.546.72.918.174.372.261.822.261 1.35h-.684c0-.42-.069-.78-.207-1.08a1.88 1.88 0 00-.576-.729 2.504 2.504 0 00-.873-.414 4.16 4.16 0 00-1.08-.135c-.312 0-.627.03-.945.09a2.73 2.73 0 00-.855.306c-.252.144-.459.33-.621.558a1.392 1.392 0 00-.243.828c0 .372.09.672.27.9.18.228.417.411.711.549.294.138.624.249.99.333l1.107.252c.456.084.885.183 1.287.297.402.114.75.27 1.044.468.294.198.525.453.693.765.168.312.252.708.252 1.188 0 .504-.114.918-.342 1.242a2.638 2.638 0 01-.864.783 3.662 3.662 0 01-1.161.414 6.938 6.938 0 01-1.251.117 4.982 4.982 0 01-1.467-.207 3.329 3.329 0 01-1.179-.63 3 3 0 01-.792-1.035c-.192-.408-.294-.882-.306-1.422h.684zM218.502 0h.684v8.514l5.706-4.914h.99l-4.05 3.456 4.338 5.796h-.936l-3.942-5.274-2.106 1.782v3.492h-.684V0z" fill="#5A1094"/></svg>